<?xml version="1.0" encoding="iso-8859-1"?>
<!-- Uploaded to: SVG Repo, www.svgrepo.com, Generator: SVG Repo Mixer Tools -->
<svg height="800px" width="800px" version="1.1" id="Layer_1" xmlns="http://www.w3.org/2000/svg" xmlns:xlink="http://www.w3.org/1999/xlink" 
	 viewBox="0 0 512 512" xml:space="preserve">
<g>
	<path style="fill:#385C8E;" d="M474.348,89.297c20.796,38.137,13.933,83.11,5.743,109.688
		C435.77,343.757,235.787,335.882,206.856,335.882c-28.897,0-35.627,26.947-35.627,26.947l-21.606,94.263
		c-5.89,33.087-35.896,31.439-35.896,31.439s-39.004,0-65.094,0c-1.637,0-3.164-0.113-4.567-0.316
		c-0.323,6.059,0.539,23.771,22.2,23.771c26.069,0,65.074,0,65.074,0s30.007,1.683,35.917-31.403l21.583-94.259
		c0,0,6.753-26.948,35.651-26.948c28.884,0,228.914,7.873,273.257-136.904C507.64,190.112,515.683,130.653,474.348,89.297z"/>
	<path style="fill:#385C8E;" d="M129.523,436.545l21.603-94.266c0,0,6.711-26.901,35.651-26.901
		c28.873,0,228.89,7.832,273.214-136.909C476.21,125.55,487.47,0.009,285.513,0.009H139.638c0,0-30.321-1.408-37.803,30.829
		L6.521,442.196c0,0-4.093,25.778,21.987,25.778c26.104,0,65.116,0,65.116,0S123.632,469.67,129.523,436.545z M184.5,197.259
		l19.371-83.589c0,0,6.17-22.731,26.104-26.097c19.913-3.378,53.834,0.601,62.56,2.248c56.65,10.639,44.6,64.239,44.6,64.239
		c-11.216,82.738-140.003,71.257-140.003,71.257C176.939,218.016,184.5,197.259,184.5,197.259z"/>
</g>
</svg>